<svg width="1705" height="1720" viewBox="0 0 1705 1720" fill="none" xmlns="http://www.w3.org/2000/svg">
<rect width="1705" height="1720" fill="#61C8FF"/>
<path d="M643.642 1115.51L608.952 1153.83L586.199 1137.89L560.275 1156.25L517.237 1115.13L469.451 1071.72L437 1052.11L438.493 1013.48L458.449 1022.25L450.102 942.799L499.483 915.292L488.293 886.57L486.43 839.329L449.131 786.044L511.145 732.94L518.048 665.743L618.574 626.581L701.01 562.212L776.31 575.055L792.955 585.938L851.61 587.898L871.939 555.168L931.806 581.467L996.43 556.291L1046.32 578.207L1049.95 651.222L1097.04 665.958L1109.44 719.018L1125.02 737.762L1161.46 773.054L1199.99 826.997L1192.28 842.406L1269.34 988.818L1230.81 1011.93L1215.4 988.816L1223.1 973.404L1161.45 857.813L1045.44 847.152L970.682 872.318L906.807 814.501L852.507 890.237L756.869 895.242L643.642 1115.51Z" fill="#D3F8E2"/>
<path d="M649.257 493.056L650.843 475.897L704.278 422L717.053 433.564L734.211 435.149L772.911 428.343L805.641 448.673L795.289 485.787L818.042 501.733L853.944 487.747L857.953 519.266L842.006 542.019L736.26 525.323L730.665 510.962L684.785 520.566L657.649 514.597L649.257 493.056Z" fill="#D3F8E2"/>
<path d="M920.614 552.74L919.402 528.402L933.763 522.807L998.013 539.128L972.088 557.498L920.614 552.74Z" fill="#D3F8E2"/>
<path d="M775.31 1113.83L762.535 1102.26L775.685 1072.33L797.226 1063.94L808.789 1051.16L853.083 1058.72L860.638 1014.42L880.594 1023.19L905.307 980.483L895.329 976.099L886.937 954.558L869.779 952.972L878.545 933.017L911.65 911.85L933.191 903.458L941.583 924.999L958.741 926.585L964.71 899.449L993.432 888.26L1010.59 889.846L1029.33 874.274L1089.2 900.572L1088.83 942.069L1116.8 1013.87L1087.33 1108.06L1092.55 1163.91L1066.25 1223.78L1075.85 1269.66L1045.55 1298.01L1037.15 1276.47L1059.07 1226.58L1059.44 1185.08L1020.74 1191.89L1000.79 1183.12L981.671 1240.19L942.971 1247L895.506 1273.76L835.639 1247.46L781.742 1194.02L775.31 1113.83Z" fill="#D3F8E2"/>
<path d="M1199.99 826.994L1161.46 773.051L1111.09 802.658L1111.09 846.939L1151.34 846.933L1161.45 857.81L1223.1 973.401L1215.4 988.813L1230.81 1011.93L1269.34 988.815L1192.28 842.403L1199.99 826.994Z" fill="#E6EDF8"/>
<path d="M1145.09 797.541L1125.09 807.541L1130.09 818.541L1159.38 830.609M1145.09 797.541L1159.38 830.609M1145.09 797.541L1159.02 790.541L1155.34 782.119L1183.57 846.772M1159.38 830.609L1183.57 846.772M1183.57 846.772L1244.05 963.956M1244.05 963.956L1247.55 974.468C1247.88 975.455 1247.62 976.543 1246.89 977.28V977.28C1245.52 978.648 1243.21 978.219 1242.42 976.453L1240.46 972.038L1244.05 963.956Z" stroke="#F3F6FF" stroke-width="10"/>
</svg>
