<svg width="8192" height="8192" viewBox="0 0 8192 8192" fill="none" xmlns="http://www.w3.org/2000/svg">
<rect width="8192" height="8192" fill="#61C8FF"/>
<path d="M3992.02 2852.39L4236.61 2094V2197.97L4328.34 2240.78V2332.53L4475.1 2418.15V2938.01L4554.59 3127.61L4713.57 3415.06L4958.17 3745.33L5159.96 4045.01L5355.64 4161.22L5710.3 4393.63L5936.55 4460.9H6071.07L6181.14 4534.3C6189.3 4558.76 6206.82 4612.58 6211.72 4632.15C6217.83 4656.62 6278.98 4662.73 6309.55 4668.85C6340.13 4674.96 6444.08 4687.2 6462.43 4687.2H6627.53C6639.76 4687.2 6817.09 4656.62 6841.55 4650.5C6861.11 4645.61 6939.39 4619.92 6976.08 4607.69L7055.57 4687.2L7226.78 4730.01L7183.98 4772.82L7104.49 4858.45L7183.98 4913.49C7251.24 4919.61 7388.22 4931.84 7398 4931.84C7407.78 4931.84 7516.22 4919.61 7569.22 4913.49L7691.51 4889.03L7618.14 4956.3L7569.22 5011.35L7556.99 5103.09L7501.95 5225.41L7416.35 5298.8L7300.16 5341.61L7202.33 5286.57L7037.22 5225.41L6957.73 5268.22L6872.12 5317.15H6737.59L6291.21 5249.87L6048.01 5243.3L5450 5336.5L5340 5298.5L5262 5278.8L5137 5285H5055L4996 5268.5L4926.5 5261L4888.5 5254L4869 5261L4851.5 5276L4811.5 5268.5H4766.5L4721.5 5272L4684 5285L4657.5 5298.5L4634 5312.5H4609L4588 5319L4568 5327.5L4551.5 5328.5L4532 5331.5L4517 5336.5L4500.5 5339L4476 5331.5H4453L4420.5 5339L4391.5 5352.5L4371 5368.5L4345 5373H4309L4288 5381L4265 5395.5L4256.5 5399.5L4250 5402.5L4240 5409L4229.5 5419.5L4223 5431L4221 5439L4223 5446.5L4226 5451H4223L4219 5446.5L4213 5445L4203.5 5451L4198 5455L4188 5459L4183 5464.5L4177 5468L4171 5472.5L4167.5 5480V5490L4164.5 5505L4166 5512L4163.5 5521L4166 5527.5L4167.5 5531V5536L4172 5544.5L4179 5551L4190 5555L4194.5 5560.5L4191 5565.5V5568.56L4183 5571.5L4179 5580L4183 5589L4177 5597.5L4174 5609.5L4167.5 5611.5V5619L4156.5 5629L4147.5 5645L4135 5660.04L4131 5671V5677.5L4130.5 5688.5H4123.5L4113.5 5676.5L4100 5670L4092.5 5660.04L4082.5 5657.5L4074.5 5660.04L4065.5 5661.5V5657.5L4072.5 5647L4070 5636L4060 5633.5L4050.5 5639H4038L4021.5 5645L3998.5 5647L3986 5657.5L3973 5663.5L3957 5657.5V5649L3949.5 5639L3942.5 5631L3932 5627L3927.5 5624L3928 5621L3932 5617.5L3931.5 5615.5L3922 5612.5L3914.5 5613L3910 5607.5L3911.5 5603L3920 5601.5L3927 5604L3940 5607.5L3952 5604L3964 5597L3982.5 5594L3994 5589H4004.52L4012.02 5577.06L4025.5 5572L4032 5559.5V5541L4036.5 5530L4047 5520L4052 5511L4057.5 5500.5L4061.5 5492.5L4065.5 5480V5464.5L4060 5451L4054.5 5435L4044.5 5419.5L4038.5 5402.5L4036.5 5391L4037 5389L4042.5 5379.5L4047 5364L4049.5 5352.5L4047.5 5339L4046 5331.5L4043.5 5327.5L4039 5324.5V5322.5L4046 5319L4052 5313L4055.5 5314.5L4057.5 5308L4055.5 5307L4054 5310.5L4048.5 5307.5L4051.5 5296H4057.5V5293L4060 5292.5L4061.5 5285.5L4058.03 5285L4060 5276L4054.5 5274.5L4049.5 5266V5255.5L4050.5 5249.5L4038 5236H4030L4027.5 5238.5L4019 5230L4022.5 5226L4022 5225L4028 5222L4031 5226V5225.5L4028 5221.5L4022 5224.5L4020.5 5220.5L4014.5 5213.5V5210H4014V5213.5L4013.5 5214L4009.5 5214.5H4009H4006.5V5213L4003 5209H4000V5203H3999V5209L3987 5214L3985 5210.5L3984 5211L3988.5 5219.5L3981.5 5223L3978 5220.5V5211L3984.5 5201L3983 5200L3980 5204L3979 5203.5L3974.5 5210V5218H3971L3969 5204H3967.5L3970 5223L3968 5223.5L3964.5 5210.5L3960 5212V5224.5H3953V5219.5L3954.5 5217L3953 5215.5L3943 5220.5H3937L3931.5 5225.5L3926.5 5230V5233H3919L3917.5 5235H3915V5232.5H3912.5L3912 5236L3907 5238.5L3906 5235.5L3905 5236L3906.5 5240L3906 5240.5L3902.5 5240L3900 5242.5L3884.5 5258.5L3865.5 5268L3845.5 5288L3835.5 5311.5L3834.5 5323L3836.5 5330.5L3840.5 5337V5343.5L3845 5352.5L3849 5364L3855.5 5374.5L3860.5 5390.5L3869 5405L3874.5 5420.5L3876 5438L3870.5 5452.5L3862.5 5462L3866 5477.5L3862.5 5483L3852 5488L3845 5500.5L3828.5 5511L3820.5 5522.5L3815 5542V5557.5L3820.5 5576L3822.5 5588L3828.5 5599.5L3834.5 5608.5L3844.5 5612L3853 5608.5H3860L3866 5611L3869.5 5615L3873 5622L3881.5 5626.5L3884.5 5632V5637L3876.5 5639L3862.5 5642.5L3853 5648.5L3848 5642.5L3841.5 5639L3832 5635.5L3822.5 5637L3815 5644.5L3805.5 5651.5L3794 5658.5L3790 5666L3791 5674L3799 5676.5L3808 5674L3815 5674.85L3823.5 5683L3825.5 5691.5L3823.5 5693.5L3815 5695.5L3806 5703.5L3800 5709L3792.31 5719L3788 5726.5L3787.5 5732.5H3784L3776 5729L3768 5735L3760 5746.5L3756 5755L3753.5 5756.5L3749 5749.5L3750.5 5740.5L3759.5 5735L3764.5 5726L3768 5723L3775.38 5724L3782 5709L3776 5700.5L3772 5704L3761 5697.5L3749 5686.5L3737.5 5680V5674.85L3733.5 5672L3732.5 5670L3736.5 5666L3740.5 5665.5L3748.5 5667L3749 5664.5L3747.5 5661L3745 5660L3735 5663.5L3732.5 5661.5L3733 5659.5L3736.5 5657L3739.5 5655.5L3738.5 5652L3735.5 5651L3735 5653.5L3733.5 5656L3729 5656.5L3725.5 5655.5L3722 5655L3720 5651L3722 5650.5L3726 5652L3729 5648.5L3731.5 5646.5L3732.5 5644.5V5639L3720 5635.5L3709.5 5638L3702.5 5637L3702 5633V5629L3694 5644.5L3677 5641L3690.5 5652L3686.5 5658.5L3674.5 5663.5L3666.5 5668.5L3672 5674.85L3677 5670L3683.5 5674.85V5678L3677 5683L3670 5693V5703.5L3674.5 5706L3677 5713.5L3681.5 5719L3681 5724L3674.5 5726L3678 5734.5L3681 5730.5L3683.5 5729L3687.5 5728.5L3697.5 5739.5L3707 5740.5L3714 5737H3716.5L3722 5743.5L3724 5747.5L3726 5758L3724.5 5763.5L3720.5 5765L3720 5771L3714 5777.5L3707 5780.5L3702 5783.5L3694 5787L3690.5 5795.5L3684.5 5797L3683.5 5804L3678 5810L3675 5806.5L3678 5803L3680 5797L3674.5 5792.5H3666.5L3663.5 5787V5780.5L3670 5777.5L3677 5771L3681.5 5763L3680 5755L3674.5 5749.5L3670 5743.5L3666.5 5737L3657.5 5743.5H3653.5V5733.5L3643.5 5728.5L3640.5 5733.5L3635 5737L3629.5 5734.5L3622.5 5721L3616.5 5719L3609.5 5722L3600.5 5729L3596 5737L3588.5 5740.5L3583.5 5736L3579.5 5738V5743.5L3575.5 5748.17L3569.5 5760.17L3566 5771.17L3558 5771.67L3558.5 5766.17L3552.5 5760.17V5753.17L3547.5 5745.17L3549.5 5740.5L3554.5 5738L3560.5 5739.5L3566 5730.5V5726L3568.5 5722L3566 5721L3562.5 5719L3558.5 5713.5L3562.5 5709.5L3568.5 5712L3571.5 5709.5L3568.5 5706V5700.5H3562.5L3556 5698.5L3554.5 5693.5L3558.5 5688.5L3552.5 5691.5L3547.5 5701.5L3543.5 5703.5L3541.5 5708L3536.5 5711L3530 5710L3523.5 5713.5L3520 5719L3516.5 5715L3520 5709.5L3517.5 5702L3511.5 5693.5L3505.5 5685.5L3504.5 5674L3499 5667L3495.5 5663.5H3489L3484 5667L3476.5 5663.5L3482 5652L3491.5 5649L3494 5642V5630L3491.5 5624L3496.5 5612L3501 5610L3511 5623.5L3515 5625L3517.5 5628L3522 5628.5L3524.5 5631.5L3528 5630L3534 5629.5L3536.5 5627L3539 5622H3545L3545.5 5617.5L3541.5 5619.5L3537 5619L3535.5 5617.5L3533.5 5619H3530.5V5616L3529 5614H3513L3508 5610L3505 5605.5L3506 5602.5L3507 5599L3501 5594.5L3499.5 5591.5H3496L3491.5 5587L3489 5586L3486.5 5588V5591.5L3484 5593.5L3482 5589.5L3479 5587L3472.5 5588L3467 5590.5L3464 5588L3458.5 5587L3455.5 5590.5L3454.5 5593.5L3451 5595.5L3449.5 5594.5L3448 5591.5L3444.5 5590L3440.5 5589L3437 5588.5L3435 5589.5L3433 5588L3432 5586L3427.5 5585.5L3427 5583L3435.5 5580.5L3441.5 5582L3445 5586L3448.5 5587L3450.5 5583.5L3459 5577L3467 5578.5H3470.5L3472 5580L3471.5 5582L3476.5 5583L3486.5 5580.5L3485.5 5578.5L3486.5 5576L3489 5575L3493.5 5576L3496 5575L3499 5574H3503H3507.5L3511.5 5575.5H3515L3519 5575L3524.5 5567L3528.5 5564L3535.5 5562.5L3541.5 5561.5L3544 5558V5555L3547 5553.91L3553.5 5557.5L3559 5565.5L3561.5 5568.5L3561 5572.5L3557.5 5575V5576H3559L3563 5580.5L3565.5 5591.5L3571.5 5581.5L3579 5587.5L3586.5 5599V5610L3582.5 5611V5622L3580.5 5625L3578.5 5626L3578 5629L3575.5 5630L3574 5631L3573.5 5633.5L3574.5 5636L3582.5 5633L3586.5 5631L3593.5 5625L3598 5622L3599.5 5614.25H3594.75L3596 5603.5L3599.5 5602.5L3602 5605L3617 5600.5L3615.5 5590L3618 5588.5L3621.5 5590L3623.5 5595L3625 5593.5L3632 5590.5H3642L3646 5587L3642.5 5583L3641 5581.5L3645.5 5576H3651L3653.5 5580.5L3655.5 5583L3658.5 5579.5L3655.5 5577L3653.5 5575V5572.5L3654.5 5569.5L3653.5 5566.5L3652 5564L3648 5561.5L3642.5 5560.5L3638 5561.5L3632 5562.5L3629 5565.5L3628 5568.5L3625 5570.5L3622.5 5569V5565L3625 5563.5V5560.5H3623.5L3621.5 5559.5L3619 5560.5L3614.5 5559.5L3613.5 5556L3610.5 5553.91L3607 5551.41L3604 5550.41L3601.5 5550.91L3599.5 5549.91V5547.41L3599 5545.91L3597.5 5544.91L3596 5544.41L3593.5 5544.91L3590.5 5547.41L3589 5549.91L3586 5551.41L3582.5 5549.91L3578.5 5547.41L3578 5544L3574.5 5540.5L3569 5535.5L3559.5 5534H3556L3552 5536.5L3550.5 5538.5L3549 5538L3547 5536.5L3543.5 5538.5L3541.5 5544L3540 5545.5L3537 5544.91L3536 5541.5L3531.5 5536L3522 5532L3516.5 5530.5L3510 5532L3506.5 5528.5L3515 5525L3519 5520.5L3521 5514.5V5508.5L3516.5 5501.5L3505 5491L3493.5 5486.5H3485.5L3475.5 5490L3459 5494.5H3441.5L3419 5488H3411L3406 5491.5L3402.5 5495.5L3401.5 5502V5506L3402 5508.5L3405 5515L3400.5 5521.5L3397 5520.5V5519L3398.5 5516V5512.5L3397 5509L3392 5500.5L3388 5495L3385.5 5490L3378.5 5476.5L3363.5 5469.5L3350.5 5458.5L3335 5437.5L3315 5424.5L3307.5 5410L3293.5 5389.5L3257.5 5370.5L3234 5380L3132.5 5343.5L3083 5240.5L2904.27 5258.5L2791.04 5285.5L2553.42 5220.5L2371.56 5258.5L2244.27 5358L2144.35 5368L2107.02 5288.5L2228 5220.5L2300.5 5090.5L2285.5 5018L2187.83 4918L2056.74 4848L2028.43 4741.5L1960.66 4640L1826.84 4579.5L1731.62 4499.5L1565 4393.8L1410 4344L1376.5 4339.5L1352.5 4352L1338 4379L1336 4356.5L1337 4344V4335L1336 4328.5L1331.5 4321L1326 4318.5L1322.5 4317L1320 4315L1314 4307L1309 4298L1304 4292L1299 4286.5L1290.5 4278L1284 4272L1273.5 4268.5L1268.5 4259L1259.44 4255.5L1246.44 4259L1226 4255.5L1219.5 4251.5L1226 4242L1246.44 4235L1258.44 4226.5L1276.44 4211L1286.44 4198.5L1288.44 4184.48L1290.5 4180L1289 4174.5L1286.44 4170V4167.5L1290.5 4157L1286.44 4143.98L1275.94 4141.48L1266.44 4143.98L1258.94 4141.48L1256.94 4139.48L1254.44 4137.48L1250.94 4135.48L1248.44 4133.48L1243.5 4132L1239.44 4132.98L1238.44 4130.98L1239.94 4128.98L1242.94 4126.98L1246.44 4128.98L1248.94 4129.98H1259.44V4132.48H1265.44L1268.44 4129.98L1265.94 4128.98L1266.44 4127.48L1273.44 4120.48L1272.44 4119.48L1269 4121L1267.44 4124.48L1257.94 4121.48L1258.44 4119.98L1266.44 4122.48L1269.94 4114.98L1256.5 4110L1254.44 4119.48L1251.94 4118.98L1254.44 4107.48L1248.94 4105.98L1247.94 4109.98L1246.94 4110.98L1243.94 4110.48L1242.44 4106.98L1242.94 4102.98L1237.44 4104.1L1240.44 4109.1L1237.94 4112.48L1238.94 4116.48L1235.94 4117.98L1232.44 4116.98L1229.44 4119.48L1227.44 4123.98V4126.98L1229.44 4130.98L1226 4133.48L1221.5 4132.48L1219 4127.48L1220.94 4124.48V4119.48L1216.44 4111.48V4102.48L1212.44 4096.98L1200 4073.5L1181 4053.5L1145.94 4045.09H1135.5L1124.5 4038L1115.5 4032L1107 4023.5L1096 4019.5L1092 4010.5L1083.5 4001L1073.5 3998.5L1065 4007.5L1056 4003L1043.5 4002.5L1037.5 3999L1033 4006.5L1017.5 3999L1006 4002L993.5 3994.5L990 3999H979.5L972 4003.5L953.5 4006.5L935 3996.5L919.5 3994.5L894.436 3996.5L868.5 3986.5L865 3988.5H856L835 3996.5L812.5 3999L802.5 4007.5L790.5 4023.5L782.436 4015L771 4019L760.5 4015L752 4023.5L746.5 4015L725 4011L712.5 4003.5L719.5 3992L725 3988.5L741.5 3999L740 3992L741.5 3984H754.5L760.5 3969L731 3959H719.5L712.5 3962H704L702.5 3957.5L689 3955.5L681 3953.5L675.5 3955.5L672.5 3959.5L660.5 3962.5L653.5 3958L645 3956L641 3959.5L645 3969L643 3972.5L631 3970L621 3974.5L612.5 3971.5L605 3974.5L601 3971.5L594 3975L588.5 3971L584 3968L579 3970L578.5 3968L577 3967L577.5 3965.5L586 3966L587.5 3963L597 3967L607 3964L607.5 3962L614.5 3956.5L627.5 3957.5L633.5 3948L643 3951.5L660.5 3945.5L671 3947L686.5 3945.5H706.5L709.5 3940L720.5 3937L725 3932.5H735V3935L748.5 3932.5L756 3937L768.5 3932.5L774 3927L783 3924.5L794.936 3927L793 3934L797.5 3937L794 3945.5L788.5 3951.5L794 3963.5L794.936 3959L800.5 3958L808.5 3947L810.5 3942L815.5 3937L817.5 3940L822.5 3947L823.5 3953.5L820.5 3963.5L823.5 3965.5L822.5 3971L826.5 3973.5L836 3970L849 3968.5L856 3965.5L854.5 3958L848 3945.5L849 3943L839 3927L841 3923.5H854.5L858.5 3935L864 3947L865 3956.5H873.5L878.5 3948L879.5 3932.5L885.5 3923.5L894.436 3927L902.5 3932.5L909.5 3942.98L914.5 3947L919.5 3945L918 3933.5L926 3927L931.5 3930V3941L936 3949.5V3953.5L943 3959.5L946 3956.5L954.5 3967L958.5 3966L960 3959L959 3955L966 3951.5L966.5 3945.5L969.5 3943.5L972 3946.5L982.5 3945L979.5 3949.5L987.5 3953L992.5 3947.5H1001.5L1000.5 3956L995 3965L1000.5 3974L1019 3977L1030.5 3960.5L1024.5 3949.5L1028.06 3947.5L1057 3960.5L1059.5 3951.5L1066 3953L1065 3956L1066.5 3958.5L1075 3957.5L1076.5 3953.5H1077.5L1081 3955.5L1086 3954.5L1087 3952.5H1089L1097.5 3958L1099 3961.5L1105 3960L1107 3957.5L1116 3956L1121 3964.46L1129.5 3965.5L1130 3961.5L1131.5 3961L1135.5 3965.5L1146.5 3964.46L1152.5 3971L1164.5 3964.46L1175 3971L1190.5 3964.46L1203.5 3968L1216.44 3972L1232.44 3983.5L1242.44 3980.75L1244 3977V3966L1255 3959L1276.44 3964.46L1297 3969L1330.5 3964.46L1376 3972L1390 3977L1398.94 3980.75L1409 3996L1436 4014.5L1459 4034L1491.5 4049.5L1519.5 4060L1543 4062L1548 4067L1567 4071L1590.5 4073.5L1621 4076.5H1635.5L1644 4075.5L1648 4073.5L1649 4074.5L1648.42 4078.99L1653.56 4087.56L1671.58 4096.14H1691.31L1710.18 4091L1722.19 4084.13L1723.41 4085.85V4089.28L1717.9 4096.14L1716.18 4109.01L1722.19 4127.88L1730.77 4133.03L1735.06 4126.17L1735.91 4127.02L1731.62 4133.89L1743.63 4140.75H1768.51V4147.61H1771.94V4138.18H1802.82L1807.97 4147.61L1826.84 4153.62L1824.27 4163.05L1852.58 4169.91L1861.16 4180.21L1863.73 4178.49L1857.73 4171.63V4164.68L1868.02 4156.19H1886.89V4167.34H1888.61V4156.19H1910.91V4167.34H1912.63V4156.19L1919.49 4151.04H1944.37L1946.94 4160.48L1950.37 4158.76L1947.8 4150.18L1960.66 4140.75L1964.1 4142.46L1968.39 4139.03L1979.54 4154.47L1980.39 4153.62L1977.82 4150.18L1987.26 4143.32L1989.83 4146.75L1998.41 4140.75L1995.84 4137.32L1996.69 4136.46L1999.27 4139.89L2005.27 4135.6L2001.84 4130.45L1996.69 4133.89L1994.98 4132.17L1992.4 4133.89L1989.83 4130.45L2003.56 4124.45L2007.85 4125.31L2009.56 4124.45L2010.42 4125.31L2005.27 4128.74L2008.7 4133.46L2014.71 4128.74L2023.29 4140.75L2026.72 4154.47L2028.43 4153.62L2025.86 4139.89L2020.71 4125.31L2021.57 4117.59L2037.01 4111.58L2043.02 4117.59L2056.74 4114.16L2071.32 4121.02L2093.63 4115.87V4103.86L2127.94 4099.57L2129.66 4103.86L2142.52 4102.15V4092.71H2145.96V4101.29L2172.55 4096.14L2201.71 4078.13L2230.02 4054.11L2254.9 4018.94L2257.47 4013.79L2267.77 4012.93L2291.79 3995.78L2313.23 3979.48L2326.1 3964.9L2338.11 3946.02L2344.97 3929.73L2349.26 3921.15L2362.99 3914.29L2371.56 3910.85L2382.72 3909.14H2389.93L2399.87 3907.42L2405.02 3903.13L2405.88 3903.99L2405.02 3907.42L2406.73 3905.71V3903.99L2407.59 3902.28L2411.02 3901.42L2414.45 3898.84L2422.18 3896.27L2430.75 3893.7L2438.84 3898.23L2439.33 3898.84L2437.62 3901.42L2438.47 3905.71L2434.18 3909.14L2430.75 3914.29L2424.75 3921.15L2414.45 3929.73L2405.88 3938.3L2399.87 3951.17L2393.01 3961.47L2384.43 3975.19L2374.14 3988.92L2367.27 4008.65L2360.41 4018.94L2352.69 4030.09L2344.97 4046.39L2342.4 4051.54V4060.11L2335.53 4077.27L2334.68 4084.99L2331.25 4093.57V4103.86L2334.68 4120.16L2338.11 4132.17L2342.4 4139.03L2344.97 4149.33L2342.4 4160.48L2338.11 4176.78L2339.82 4196.51L2338.11 4210.23L2335.53 4221.38V4235.11L2342.4 4244.54L2344.97 4257.41L2365.56 4275.43L2372.42 4277.14H2376.71L2386.15 4289.15L2388.72 4295.16V4306.31L2395.58 4323.46L2419.6 4345.77L2436.76 4356.06H2444.48L2451.34 4357.78L2455.63 4363.78L2453.91 4369.79V4377.51H2452.2V4381.79L2459.92 4390.37H2462.49V4382.65H2476.22V4384.37H2465.92V4387.8H2475.36L2476.22 4388.66V4391.23L2463.35 4406.67L2466.78 4409.25L2479.65 4393.8L2480.51 4394.66L2471.93 4406.67L2475.36 4409.25L2492.52 4387.8L2490.8 4369.79L2471.93 4371.5V4368.93L2492.52 4367.21L2495.09 4371.5L2504.53 4374.93L2537.98 4381.79L2553.42 4377.51L2571.44 4381.79L2592.02 4377.51H2614.33L2632.34 4368.93L2655.5 4377.51L2682.1 4375.79L2707.83 4370.64L2734.42 4360.35L2761.02 4357.78L2791.04 4346.62L2807.34 4335.47L2825.35 4326.04L2845.08 4322.61L2859.67 4314.03L2881.97 4306.31L2897.41 4288.29L2904.27 4275.43L2938.59 4247.12L2960.89 4222.24L2976.33 4197.36L2980.62 4188.79L2986.5 4160L2997 4148L3006 4142.5L3019.5 4148V4170.5L3034.5 4182H3055.5V4147L3034.5 4135L3015 4139L3011 4137L3047.5 4100.5L3105 4079.5L3217.5 4025.5L3345.5 3938.5L3391 3895L3484.49 3837.07L3747.43 3164.31L3992.02 2852.39Z" fill="#D3F8E2"/>
<path d="M3982.5 5224L3989 5220.5L4004 5222L4017 5230L4013 5234.5L4000 5233V5230.5H3999V5233H3989L3982.5 5224Z" fill="#F6F5F5"/>
<path d="M3987.5 5215L3999 5210H4002.5L4006 5213.5V5216H4014.5L4019 5220.5L4021 5226L4017 5229L4004 5221L3997 5220L3994 5219.5L3994.5 5218.5L3993.5 5218L3993 5219.5L3989.5 5219L3987.5 5215Z" fill="#F6F5F5"/>
<path d="M3944 5221.5L3951 5218L3952 5219V5224.5H3944L3941 5226.5L3937.5 5223.5V5221.5H3944Z" fill="#F6F5F5"/>
<path d="M3927.5 5230.5L3936 5223L3940 5226.5V5227L3939 5228H3935.5L3930 5233H3927.5V5230.5Z" fill="#F6F5F5"/>
<path d="M4029 5239L4031 5237H4038L4049.5 5250L4048.5 5255.5V5265H4044.5V5264H4043.5V5255.5L4036.25 5247.25L4037 5246.5L4031.5 5240.5L4031 5241L4029 5239Z" fill="#F6F5F5"/>
<path d="M4043.5 5267H4048.5L4053.5 5275.5L4053 5278.5H4054L4054.5 5276L4059 5277L4057 5285L4056 5291V5294.5H4051.5L4046 5282.5L4045 5283L4043.5 5280.5V5274H4044.5V5272H4043.5V5271H4044.5V5269H4043.5V5267Z" fill="#F6F5F5"/>
<path d="M2206.5 4526L2259 4515.5L2351 4564L2523 4543L2605 4564L2720.5 4576.5L2802 4543L2870 4473.5L2965.5 4394H3030.5L3091.5 4448V4473.5L3039 4543L3048.5 4609L3091.5 4671L3148.5 4685.5L3207 4631L3292 4609L3404 4529.5L3457.5 4454.5L3508.5 4485L3530 4564L3494 4671V4731.5L3442 4763.5L3465 4811.5L3535.5 4854L3592 4818L3687 4799L3732.5 4825V4861.5L3701 4896.5L3687 4942L3732.5 4980L3773 4965.5H3819.5L3847.5 4987.5L3792.5 5002L3754.5 5047L3687 5062L3660 5002L3644 4980L3606.5 4956.5H3572.5L3542 4965.5L3530 4987.5L3597 5015L3660 5078L3687 5109.5L3723 5155.5L3754.5 5235L3773 5275L3819.5 5319L3773 5331.5L3723 5411.5L3780.5 5526.5L3804.5 5568.5L3792.5 5606L3754.5 5613.5L3732.5 5600.82V5556L3708 5526.5L3629.5 5493.5H3572.5L3408 5435.5L3364 5366L3200.5 5304.5L3181.5 5214L3213 5155.5L3181.5 5124H3122.5L3062 5145L2985 5172.5L2896.5 5189H2821L2720.5 5214L2676.5 5155.5L2632.5 5124L2504.5 5145L2412 5189L2322 5235L2244.5 5304.5L2221 5275L2288.5 5214L2322 5124L2380.5 5107L2442 5025.5L2491.5 4987.5L2523 4937L2453 4907.5L2478 4858L2504.5 4811.5L2542 4791.5L2491.5 4763.5L2442 4703L2380.5 4685.5L2364 4648L2301 4660.5L2259 4648L2221 4589L2206.5 4526Z" fill="#A9ECC7"/>
<path d="M4285 2375.5L4256 2248L4306.5 2289.5L4324 2375.5L4348.5 2498.5L4464 2568V2934.5L4559 3150L4670 3489.5L4805 3592L4809.5 3634.5L4738.5 3695.5L4774.5 3800.5L4898 3854.5L5051 3928L5027 4047.5L5162 4101.5L5459 4314L5711 4440.5L5900 4473.5L6104 4578.5L6197 4702.5L6353 4764.5L6506 4728.5V4813L6545 4870L6380 4933L6269 5038L6131 4972L6032 4933L5843 4891L5660.5 4813L5607 4886L5635.5 4993L5594 5038L5519 4993L5374 4813L5246.5 4702.5L5162 4578.5L5027 4503L4855 4473.5L4738.5 4503H4559L4464 4452L4401.5 4430.5L4306.5 4365L4227 4452H4136L4038 4503L4016 4430.5L4085 4314L4063.5 4206.5L3879 4101.5L3809.5 4047.5L3798.5 3923.5L3879 3854.5L3809.5 3737L3759.5 3634.5V3534.5L3898 3484L3979 3411L4063.5 3377.5L4136 3254L4085 3069L4172.5 2945.5L4136 2767.5L4208.5 2636.5L4256 2498.5L4285 2375.5Z" fill="#A9ECC7"/>
<path d="M3964.5 5210.5L3960 5212V5224.5H3953V5219.5L3954.5 5217L3953 5215.5L3943 5220.5H3937L3931.5 5225.5L3926.5 5230V5233H3919L3917.5 5235H3915V5232.5H3912.5L3912 5236L3907 5238.5L3906 5235.5L3905 5236L3906.5 5240L3906 5240.5L3902.5 5240L3900 5242.5V5232.5L3906.5 5223L3928 5205.5L3947 5195L3953 5172L3967.5 5143L3968 5128.5L3937 5115L3907 5104L3875.5 5097H3845.5L3806 5089.5L3790.5 5074L3776 5058.5H3796H3825.5L3845.5 5064.5L3870 5058.5L3900 5064.5L3926.5 5077H3946L3953.5 5074L3948 5064.5L3943 5050.5V5042.5L3954.5 5050.5L3969 5064.5L3993.5 5071L4022 5074L4038 5071L4031 5064.5L4009.5 5050.5H4003L3988.5 5046L3981.5 5038L3978 5019.5L3966.5 4997.5L3951 4994.5L3936 4979.5L3905 4970.5L3875.5 4976.5L3845.5 4966L3870 4954.5L3875.5 4915L3891.5 4882.5L3919 4887L3923 4925L3943 4940.5L3968 4954.5L3988.5 4972L4027.5 4997.5L4059 5003H4081.5L4075 4994.5L4047 4991.5L4025 4972L4009.5 4947L3988.5 4925L3983 4887L4007.5 4882.5L4030 4900L4063 4876.5L4101.5 4887L4128.5 4915L4146 4940.5L4139 4966L4146 4997.5L4188 5064.5L4209.5 5104L4231.5 5119.5L4275.5 5132L4296 5164.5L4237 5176.5L4227.5 5197.5L4206.5 5213L4199 5203L4187 5197.5L4180 5209L4155 5226L4138.5 5246.5L4119 5263L4102 5296L4079.5 5299L4067.5 5319L4054.5 5342.5L4047.5 5339L4046 5331.5L4043.5 5327.5L4039 5324.5V5322.5L4046 5319L4052 5313L4055.5 5314.5L4057.5 5308L4055.5 5307L4054 5310.5L4048.5 5307.5L4051.5 5296H4057.5V5293L4060 5292.5L4061.5 5285.5L4058.03 5285L4060 5276L4054.5 5274.5L4049.5 5266V5255.5L4050.5 5249.5L4038 5236H4030L4027.5 5238.5L4019 5230L4022.5 5226L4022 5225L4028 5222L4031 5226V5225.5L4028 5221.5L4022 5224.5L4020.5 5220.5L4014.5 5213.5V5210H4014V5213.5L4013.5 5214L4009.5 5214.5H4009H4006.5V5213L4003 5209H4000V5203H3999V5209L3987 5214L3985 5210.5L3984 5211L3988.5 5219.5L3981.5 5223L3978 5220.5V5211L3984.5 5201L3983 5200L3980 5204L3979 5203.5L3974.5 5210V5218H3971L3969 5204H3967.5L3970 5223L3968 5223.5L3964.5 5210.5Z" fill="#F6F5F5"/>
<path d="M2172.55 4096.14L2201.71 4078.13L2212.5 4083L2201.71 4111.58L2183.5 4133.03L2172.55 4178.49L2150 4209.5L2129.66 4236.5L2121 4265.5L2127.94 4285.5L2150 4299L2172.55 4304L2183.5 4330.5L2201.71 4358.5L2212.5 4382L2228.5 4397.5L2239.5 4429.5L2275.5 4444V4465L2195 4435.5L2142.52 4429.5L2117 4453L2106.5 4435.5L2117 4407L2111.5 4382L2089.5 4360.5L2071.32 4348L2043.02 4358.5L2007.85 4343L1972 4348L1946.94 4343L1912.63 4313.5L1886.89 4304L1875 4320.5L1863.73 4337L1849.5 4372L1814.5 4392.5L1775.5 4421L1764 4407L1771.94 4382L1789.5 4353L1797 4320.5V4304L1775.5 4291L1735.91 4294.5L1701 4320.5L1691.31 4304L1710.18 4285.5L1735.91 4265.5L1743.63 4244L1756.5 4223.5L1743.63 4196.5L1735.91 4180.21L1717.9 4171.63L1691.31 4158.76L1676 4136.46L1660.5 4125.31L1653.56 4103.86L1643 4091L1648.42 4078.99L1653.56 4087.56L1671.58 4096.14H1691.31L1710.18 4091L1722.19 4084.13L1723.41 4085.85V4089.28L1717.9 4096.14L1716.18 4109.01L1722.19 4127.88L1730.77 4133.03L1735.06 4126.17L1735.91 4127.02L1731.63 4133.89L1743.63 4140.75H1768.51V4147.61H1771.94V4138.18H1802.82L1807.97 4147.61L1826.84 4153.62L1824.27 4163.05L1852.58 4169.91L1861.16 4180.21L1863.73 4178.49L1857.73 4171.63V4164.68L1868.02 4156.19H1886.89V4167.34H1888.61V4156.19H1910.91V4167.34H1912.63V4156.19L1919.49 4151.04H1944.37L1946.94 4160.48L1950.37 4158.76L1947.8 4150.18L1960.66 4140.75L1964.1 4142.46L1968.39 4139.03L1979.54 4154.47L1980.39 4153.62L1977.82 4150.18L1987.26 4143.32L1989.83 4146.75L1998.41 4140.75L1995.84 4137.32L1996.69 4136.46L1999.27 4139.89L2005.27 4135.6L2001.84 4130.45L1996.69 4133.89L1994.98 4132.17L1992.4 4133.89L1989.83 4130.45L2003.56 4124.45L2007.85 4125.31L2009.56 4124.45L2010.42 4125.31L2005.27 4128.74L2008.7 4133.46L2014.71 4128.74L2023.29 4140.75L2026.72 4154.47L2028.43 4153.62L2025.86 4139.89L2020.71 4125.31L2021.57 4117.59L2037.01 4111.58L2043.02 4117.59L2056.74 4114.16L2071.32 4121.02L2093.63 4115.87V4103.86L2127.94 4099.57L2129.66 4103.86L2142.52 4102.15V4092.71H2145.96V4101.29L2172.55 4096.14Z" fill="#F6F5F5"/>
<path d="M3919 4542.5L3940 4465L3931 4407.5L3884.5 4379.5L3853 4449L3784.5 4497.5L3735 4526L3692.5 4542.5L3677 4573.5V4681.5L3709.5 4709.5L3739 4740L3709.5 4752L3671 4746L3610.5 4779.5L3625.5 4797L3671 4793L3718 4787H3772L3809.5 4793L3838.5 4823.5H3875L3889.5 4858L3919 4846L3931 4805V4746L3960 4732.5L3985.5 4757.5V4805L4011.5 4834L4032.5 4841.5H4060.5L4107.5 4812.5L4126.5 4787L4119.5 4715L4126.5 4672.5L4119.5 4628L4115.5 4579.5L4087.5 4542.5L4032.5 4558.5L3953 4570L3919 4542.5Z" fill="#F6F5F5"/>
</svg>
